<svg height="60" viewBox="0 0 60 60" width="60" xmlns="http://www.w3.org/2000/svg"><path d="m0 0h60v60h-60z" fill="none"/><path d="m31.838 23.812v-14.541l-7.209-7.271-7.21 7.271v4.847h-14.419v33.93h43.258v-24.236zm-19.225 19.388h-4.807v-4.846h4.806zm0-9.694h-4.807v-4.847h4.806zm0-9.694h-4.807v-4.847h4.806zm14.419 19.388h-4.806v-4.846h4.806zm0-9.694h-4.806v-4.847h4.806zm0-9.694h-4.806v-4.847h4.806zm0-9.694h-4.806v-4.847h4.806zm14.419 29.082h-4.806v-4.846h4.806zm0-9.694h-4.806v-4.847h4.806z" fill="#dd1b57" transform="translate(5.371 3.581)"/></svg>